<mxfile host="app.diagrams.net" agent="Mozilla/5.0 (Windows NT 10.0; Win64; x64) AppleWebKit/537.36 (KHTML, like Gecko) Chrome/128.0.0.0 Safari/537.36 Edg/128.0.0.0" version="24.7.10">
  <diagram name="PÃ¡gina-1" id="slRdnjjuHF7EVNd0lsjX">
    <mxGraphModel dx="1237" dy="447" grid="1" gridSize="10" guides="1" tooltips="1" connect="1" arrows="1" fold="1" page="1" pageScale="1" pageWidth="850" pageHeight="1100" math="0" shadow="0">
      <root>
        <mxCell id="0" />
        <mxCell id="1" parent="0" />
        <mxCell id="ijQ2Wkxo8JsokQV01jov-33" value="" style="rounded=0;whiteSpace=wrap;html=1;fontFamily=Helvetica;fontSize=11;fontColor=default;labelBackgroundColor=default;" vertex="1" parent="1">
          <mxGeometry x="784.69" y="40" width="300.62" height="570" as="geometry" />
        </mxCell>
        <mxCell id="ijQ2Wkxo8JsokQV01jov-21" value="" style="rounded=0;whiteSpace=wrap;html=1;fontFamily=Helvetica;fontSize=11;fontColor=default;labelBackgroundColor=default;" vertex="1" parent="1">
          <mxGeometry x="250" y="100" width="300.62" height="470" as="geometry" />
        </mxCell>
        <mxCell id="ijQ2Wkxo8JsokQV01jov-14" style="edgeStyle=none;shape=connector;rounded=0;orthogonalLoop=1;jettySize=auto;html=1;strokeColor=default;align=center;verticalAlign=middle;fontFamily=Helvetica;fontSize=11;fontColor=default;labelBackgroundColor=default;endArrow=none;endFill=0;" edge="1" parent="1" source="ijQ2Wkxo8JsokQV01jov-1" target="ijQ2Wkxo8JsokQV01jov-4">
          <mxGeometry relative="1" as="geometry" />
        </mxCell>
        <mxCell id="ijQ2Wkxo8JsokQV01jov-15" style="edgeStyle=none;shape=connector;rounded=0;orthogonalLoop=1;jettySize=auto;html=1;strokeColor=default;align=center;verticalAlign=middle;fontFamily=Helvetica;fontSize=11;fontColor=default;labelBackgroundColor=default;endArrow=none;endFill=0;" edge="1" parent="1" source="ijQ2Wkxo8JsokQV01jov-1" target="ijQ2Wkxo8JsokQV01jov-5">
          <mxGeometry relative="1" as="geometry" />
        </mxCell>
        <mxCell id="ijQ2Wkxo8JsokQV01jov-16" style="edgeStyle=none;shape=connector;rounded=0;orthogonalLoop=1;jettySize=auto;html=1;strokeColor=default;align=center;verticalAlign=middle;fontFamily=Helvetica;fontSize=11;fontColor=default;labelBackgroundColor=default;endArrow=none;endFill=0;" edge="1" parent="1" source="ijQ2Wkxo8JsokQV01jov-1" target="ijQ2Wkxo8JsokQV01jov-6">
          <mxGeometry relative="1" as="geometry" />
        </mxCell>
        <mxCell id="ijQ2Wkxo8JsokQV01jov-18" style="edgeStyle=none;shape=connector;rounded=0;orthogonalLoop=1;jettySize=auto;html=1;strokeColor=default;align=center;verticalAlign=middle;fontFamily=Helvetica;fontSize=11;fontColor=default;labelBackgroundColor=default;endArrow=none;endFill=0;" edge="1" parent="1" source="ijQ2Wkxo8JsokQV01jov-1" target="ijQ2Wkxo8JsokQV01jov-8">
          <mxGeometry relative="1" as="geometry" />
        </mxCell>
        <mxCell id="ijQ2Wkxo8JsokQV01jov-19" style="edgeStyle=none;shape=connector;rounded=0;orthogonalLoop=1;jettySize=auto;html=1;strokeColor=default;align=center;verticalAlign=middle;fontFamily=Helvetica;fontSize=11;fontColor=default;labelBackgroundColor=default;endArrow=none;endFill=0;" edge="1" parent="1" source="ijQ2Wkxo8JsokQV01jov-1" target="ijQ2Wkxo8JsokQV01jov-7">
          <mxGeometry relative="1" as="geometry" />
        </mxCell>
        <mxCell id="ijQ2Wkxo8JsokQV01jov-20" style="edgeStyle=none;shape=connector;rounded=0;orthogonalLoop=1;jettySize=auto;html=1;strokeColor=default;align=center;verticalAlign=middle;fontFamily=Helvetica;fontSize=11;fontColor=default;labelBackgroundColor=default;endArrow=none;endFill=0;" edge="1" parent="1" source="ijQ2Wkxo8JsokQV01jov-1" target="ijQ2Wkxo8JsokQV01jov-9">
          <mxGeometry relative="1" as="geometry" />
        </mxCell>
        <mxCell id="ijQ2Wkxo8JsokQV01jov-26" style="edgeStyle=none;shape=connector;rounded=0;orthogonalLoop=1;jettySize=auto;html=1;strokeColor=default;align=center;verticalAlign=middle;fontFamily=Helvetica;fontSize=11;fontColor=default;labelBackgroundColor=default;endArrow=none;endFill=0;" edge="1" parent="1" source="ijQ2Wkxo8JsokQV01jov-1" target="ijQ2Wkxo8JsokQV01jov-24">
          <mxGeometry relative="1" as="geometry" />
        </mxCell>
        <mxCell id="ijQ2Wkxo8JsokQV01jov-27" style="edgeStyle=none;shape=connector;rounded=0;orthogonalLoop=1;jettySize=auto;html=1;strokeColor=default;align=center;verticalAlign=middle;fontFamily=Helvetica;fontSize=11;fontColor=default;labelBackgroundColor=default;endArrow=none;endFill=0;" edge="1" parent="1" source="ijQ2Wkxo8JsokQV01jov-1" target="ijQ2Wkxo8JsokQV01jov-25">
          <mxGeometry relative="1" as="geometry" />
        </mxCell>
        <mxCell id="ijQ2Wkxo8JsokQV01jov-1" value="Admin" style="shape=umlActor;verticalLabelPosition=bottom;verticalAlign=top;html=1;outlineConnect=0;" vertex="1" parent="1">
          <mxGeometry x="40" y="250" width="30" height="60" as="geometry" />
        </mxCell>
        <mxCell id="ijQ2Wkxo8JsokQV01jov-4" value="Crear roles" style="ellipse;whiteSpace=wrap;html=1;" vertex="1" parent="1">
          <mxGeometry x="350" y="140" width="110" height="40" as="geometry" />
        </mxCell>
        <mxCell id="ijQ2Wkxo8JsokQV01jov-5" value="Crear departamentos" style="ellipse;whiteSpace=wrap;html=1;" vertex="1" parent="1">
          <mxGeometry x="338.75" y="190" width="135" height="40" as="geometry" />
        </mxCell>
        <mxCell id="ijQ2Wkxo8JsokQV01jov-6" value="Crear procesos" style="ellipse;whiteSpace=wrap;html=1;" vertex="1" parent="1">
          <mxGeometry x="348.75" y="240" width="112.5" height="40" as="geometry" />
        </mxCell>
        <mxCell id="ijQ2Wkxo8JsokQV01jov-7" value="Crear etapas" style="ellipse;whiteSpace=wrap;html=1;" vertex="1" parent="1">
          <mxGeometry x="348.75" y="290" width="112.5" height="40" as="geometry" />
        </mxCell>
        <mxCell id="ijQ2Wkxo8JsokQV01jov-8" value="Crear formatos" style="ellipse;whiteSpace=wrap;html=1;" vertex="1" parent="1">
          <mxGeometry x="338.75" y="340" width="135" height="40" as="geometry" />
        </mxCell>
        <mxCell id="ijQ2Wkxo8JsokQV01jov-9" value="Crear campos" style="ellipse;whiteSpace=wrap;html=1;" vertex="1" parent="1">
          <mxGeometry x="338.75" y="390" width="135" height="40" as="geometry" />
        </mxCell>
        <mxCell id="ijQ2Wkxo8JsokQV01jov-30" style="edgeStyle=none;shape=connector;rounded=0;orthogonalLoop=1;jettySize=auto;html=1;exitX=1;exitY=0.3333333333333333;exitDx=0;exitDy=0;exitPerimeter=0;strokeColor=default;align=center;verticalAlign=middle;fontFamily=Helvetica;fontSize=11;fontColor=default;labelBackgroundColor=default;endArrow=none;endFill=0;" edge="1" parent="1" source="ijQ2Wkxo8JsokQV01jov-22" target="ijQ2Wkxo8JsokQV01jov-29">
          <mxGeometry relative="1" as="geometry" />
        </mxCell>
        <mxCell id="ijQ2Wkxo8JsokQV01jov-32" style="edgeStyle=none;shape=connector;rounded=0;orthogonalLoop=1;jettySize=auto;html=1;strokeColor=default;align=center;verticalAlign=middle;fontFamily=Helvetica;fontSize=11;fontColor=default;labelBackgroundColor=default;endArrow=none;endFill=0;" edge="1" parent="1" source="ijQ2Wkxo8JsokQV01jov-22" target="ijQ2Wkxo8JsokQV01jov-31">
          <mxGeometry relative="1" as="geometry" />
        </mxCell>
        <mxCell id="ijQ2Wkxo8JsokQV01jov-44" style="edgeStyle=none;shape=connector;rounded=0;orthogonalLoop=1;jettySize=auto;html=1;strokeColor=default;align=center;verticalAlign=middle;fontFamily=Helvetica;fontSize=11;fontColor=default;labelBackgroundColor=default;endArrow=none;endFill=0;" edge="1" parent="1" source="ijQ2Wkxo8JsokQV01jov-22" target="ijQ2Wkxo8JsokQV01jov-42">
          <mxGeometry relative="1" as="geometry" />
        </mxCell>
        <mxCell id="ijQ2Wkxo8JsokQV01jov-46" style="edgeStyle=none;shape=connector;rounded=0;orthogonalLoop=1;jettySize=auto;html=1;strokeColor=default;align=center;verticalAlign=middle;fontFamily=Helvetica;fontSize=11;fontColor=default;labelBackgroundColor=default;endArrow=none;endFill=0;" edge="1" parent="1" source="ijQ2Wkxo8JsokQV01jov-22" target="ijQ2Wkxo8JsokQV01jov-45">
          <mxGeometry relative="1" as="geometry" />
        </mxCell>
        <mxCell id="ijQ2Wkxo8JsokQV01jov-22" value="Coordinador" style="shape=umlActor;verticalLabelPosition=bottom;verticalAlign=top;html=1;outlineConnect=0;" vertex="1" parent="1">
          <mxGeometry x="590" y="250" width="30" height="60" as="geometry" />
        </mxCell>
        <mxCell id="ijQ2Wkxo8JsokQV01jov-24" value="Crear mantenimiento correctivo" style="ellipse;whiteSpace=wrap;html=1;" vertex="1" parent="1">
          <mxGeometry x="338.75" y="440" width="135" height="40" as="geometry" />
        </mxCell>
        <mxCell id="ijQ2Wkxo8JsokQV01jov-25" value="Crear mantenimiento preventivo" style="ellipse;whiteSpace=wrap;html=1;" vertex="1" parent="1">
          <mxGeometry x="338.75" y="490" width="135" height="40" as="geometry" />
        </mxCell>
        <mxCell id="ijQ2Wkxo8JsokQV01jov-29" value="Revision y actualizacion del planeador" style="ellipse;whiteSpace=wrap;html=1;" vertex="1" parent="1">
          <mxGeometry x="847.5" y="120" width="175" height="50" as="geometry" />
        </mxCell>
        <mxCell id="ijQ2Wkxo8JsokQV01jov-31" value="Solicitud de insumos para el mantenimiento preventivo" style="ellipse;whiteSpace=wrap;html=1;" vertex="1" parent="1">
          <mxGeometry x="840" y="180" width="190" height="50" as="geometry" />
        </mxCell>
        <mxCell id="ijQ2Wkxo8JsokQV01jov-39" style="edgeStyle=none;shape=connector;rounded=0;orthogonalLoop=1;jettySize=auto;html=1;strokeColor=default;align=center;verticalAlign=middle;fontFamily=Helvetica;fontSize=11;fontColor=default;labelBackgroundColor=default;endArrow=none;endFill=0;" edge="1" parent="1" source="ijQ2Wkxo8JsokQV01jov-34" target="ijQ2Wkxo8JsokQV01jov-38">
          <mxGeometry relative="1" as="geometry" />
        </mxCell>
        <mxCell id="ijQ2Wkxo8JsokQV01jov-41" style="edgeStyle=none;shape=connector;rounded=0;orthogonalLoop=1;jettySize=auto;html=1;strokeColor=default;align=center;verticalAlign=middle;fontFamily=Helvetica;fontSize=11;fontColor=default;labelBackgroundColor=default;endArrow=none;endFill=0;" edge="1" parent="1" source="ijQ2Wkxo8JsokQV01jov-34" target="ijQ2Wkxo8JsokQV01jov-40">
          <mxGeometry relative="1" as="geometry" />
        </mxCell>
        <mxCell id="ijQ2Wkxo8JsokQV01jov-43" style="edgeStyle=none;shape=connector;rounded=0;orthogonalLoop=1;jettySize=auto;html=1;strokeColor=default;align=center;verticalAlign=middle;fontFamily=Helvetica;fontSize=11;fontColor=default;labelBackgroundColor=default;endArrow=none;endFill=0;" edge="1" parent="1" source="ijQ2Wkxo8JsokQV01jov-34" target="ijQ2Wkxo8JsokQV01jov-42">
          <mxGeometry relative="1" as="geometry" />
        </mxCell>
        <mxCell id="ijQ2Wkxo8JsokQV01jov-47" style="edgeStyle=none;shape=connector;rounded=0;orthogonalLoop=1;jettySize=auto;html=1;strokeColor=default;align=center;verticalAlign=middle;fontFamily=Helvetica;fontSize=11;fontColor=default;labelBackgroundColor=default;endArrow=none;endFill=0;" edge="1" parent="1" source="ijQ2Wkxo8JsokQV01jov-34" target="ijQ2Wkxo8JsokQV01jov-45">
          <mxGeometry relative="1" as="geometry" />
        </mxCell>
        <mxCell id="ijQ2Wkxo8JsokQV01jov-49" style="edgeStyle=none;shape=connector;rounded=0;orthogonalLoop=1;jettySize=auto;html=1;strokeColor=default;align=center;verticalAlign=middle;fontFamily=Helvetica;fontSize=11;fontColor=default;labelBackgroundColor=default;endArrow=none;endFill=0;" edge="1" parent="1" source="ijQ2Wkxo8JsokQV01jov-34" target="ijQ2Wkxo8JsokQV01jov-48">
          <mxGeometry relative="1" as="geometry" />
        </mxCell>
        <mxCell id="ijQ2Wkxo8JsokQV01jov-53" style="edgeStyle=none;shape=connector;rounded=0;orthogonalLoop=1;jettySize=auto;html=1;strokeColor=default;align=center;verticalAlign=middle;fontFamily=Helvetica;fontSize=11;fontColor=default;labelBackgroundColor=default;endArrow=none;endFill=0;" edge="1" parent="1" source="ijQ2Wkxo8JsokQV01jov-34" target="ijQ2Wkxo8JsokQV01jov-52">
          <mxGeometry relative="1" as="geometry" />
        </mxCell>
        <mxCell id="ijQ2Wkxo8JsokQV01jov-34" value="Asistente" style="shape=umlActor;verticalLabelPosition=bottom;verticalAlign=top;html=1;outlineConnect=0;" vertex="1" parent="1">
          <mxGeometry x="1320" y="370" width="30" height="60" as="geometry" />
        </mxCell>
        <mxCell id="ijQ2Wkxo8JsokQV01jov-50" style="edgeStyle=none;shape=connector;rounded=0;orthogonalLoop=1;jettySize=auto;html=1;strokeColor=default;align=center;verticalAlign=middle;fontFamily=Helvetica;fontSize=11;fontColor=default;labelBackgroundColor=default;endArrow=none;endFill=0;" edge="1" parent="1" source="ijQ2Wkxo8JsokQV01jov-35" target="ijQ2Wkxo8JsokQV01jov-48">
          <mxGeometry relative="1" as="geometry" />
        </mxCell>
        <mxCell id="ijQ2Wkxo8JsokQV01jov-54" style="edgeStyle=none;shape=connector;rounded=0;orthogonalLoop=1;jettySize=auto;html=1;strokeColor=default;align=center;verticalAlign=middle;fontFamily=Helvetica;fontSize=11;fontColor=default;labelBackgroundColor=default;endArrow=none;endFill=0;" edge="1" parent="1" source="ijQ2Wkxo8JsokQV01jov-35" target="ijQ2Wkxo8JsokQV01jov-52">
          <mxGeometry relative="1" as="geometry" />
        </mxCell>
        <mxCell id="ijQ2Wkxo8JsokQV01jov-35" value="Auxiliar" style="shape=umlActor;verticalLabelPosition=bottom;verticalAlign=top;html=1;outlineConnect=0;" vertex="1" parent="1">
          <mxGeometry x="590" y="500" width="30" height="60" as="geometry" />
        </mxCell>
        <mxCell id="ijQ2Wkxo8JsokQV01jov-38" value="Realizar mantenimiento preventivo" style="ellipse;whiteSpace=wrap;html=1;" vertex="1" parent="1">
          <mxGeometry x="850" y="240" width="170" height="50" as="geometry" />
        </mxCell>
        <mxCell id="ijQ2Wkxo8JsokQV01jov-40" value="Entregar el equipo" style="ellipse;whiteSpace=wrap;html=1;" vertex="1" parent="1">
          <mxGeometry x="850" y="300" width="170" height="50" as="geometry" />
        </mxCell>
        <mxCell id="ijQ2Wkxo8JsokQV01jov-42" value="Solicitud de mantenimiento correctivo" style="ellipse;whiteSpace=wrap;html=1;" vertex="1" parent="1">
          <mxGeometry x="850" y="360" width="170" height="50" as="geometry" />
        </mxCell>
        <mxCell id="ijQ2Wkxo8JsokQV01jov-45" value="Diagnositico inmediato del equipo" style="ellipse;whiteSpace=wrap;html=1;" vertex="1" parent="1">
          <mxGeometry x="850" y="420" width="170" height="50" as="geometry" />
        </mxCell>
        <mxCell id="ijQ2Wkxo8JsokQV01jov-48" value="Seleccionar departamento" style="ellipse;whiteSpace=wrap;html=1;" vertex="1" parent="1">
          <mxGeometry x="850" y="480" width="170" height="50" as="geometry" />
        </mxCell>
        <mxCell id="ijQ2Wkxo8JsokQV01jov-52" value="Seleccionar tipo de mantenimiento" style="ellipse;whiteSpace=wrap;html=1;" vertex="1" parent="1">
          <mxGeometry x="850" y="540" width="170" height="50" as="geometry" />
        </mxCell>
        <mxCell id="ijQ2Wkxo8JsokQV01jov-55" value="Crear planificacion de mantenimientos" style="ellipse;whiteSpace=wrap;html=1;" vertex="1" parent="1">
          <mxGeometry x="850" y="60" width="170" height="50" as="geometry" />
        </mxCell>
      </root>
    </mxGraphModel>
  </diagram>
</mxfile>
